<svg xmlns="http://www.w3.org/2000/svg" viewBox="0 0 128 128">
  <defs>
    <linearGradient id="g" x1="0" y1="0" x2="1" y2="1">
      <stop offset="0%" stop-color="#4f46e5" />
      <stop offset="100%" stop-color="#0ea5e9" />
    </linearGradient>
  </defs>
  <rect x="8" y="8" width="112" height="112" rx="28" ry="28" fill="url(#g)" />
  <path d="M38 42h18a8 8 0 0 1 8 8v30a8 8 0 0 1-8 8H38a8 8 0 0 1-8-8V50a8 8 0 0 1 8-8zm18 9H42v31h14V51zm27-9h18a8 8 0 0 1 8 8v30a8 8 0 0 1-8 8H65a8 8 0 0 1-8-8V50a8 8 0 0 1 8-8zm18 9H69v31h14V51z" fill="#fff" />
</svg>
